<svg id="Camada_1" data-name="Camada 1" xmlns="http://www.w3.org/2000/svg" viewBox="0 0 725.23 707.32"><defs><style>.cls-1,.cls-2{fill:#fff;}.cls-1{fill-rule:evenodd;}</style></defs><title>github-logo</title><path class="cls-1" d="M362.61,0C162.37,0,0,162.34,0,362.61,0,522.82,103.9,658.74,248,706.69c18.12,3.36,24.77-7.87,24.77-17.44,0-8.64-.33-37.21-.49-67.51C171.38,643.67,150.1,579,150.1,579c-16.5-41.9-40.27-53.06-40.27-53.06-32.9-22.5,2.48-22,2.48-22,36.42,2.56,55.59,37.37,55.59,37.37,32.34,55.43,84.83,39.41,105.52,30.14,3.26-23.43,12.65-39.43,23-48.49-80.54-9.16-165.21-40.26-165.21-179.2,0-39.58,14.17-71.93,37.37-97.33-3.77-9.14-16.18-46,3.51-96,0,0,30.46-9.74,99.74,37.17a343.72,343.72,0,0,1,181.6,0c69.21-46.91,99.62-37.17,99.62-37.17,19.74,49.94,7.33,86.82,3.56,96,23.25,25.4,37.32,57.75,37.32,97.33C594,483,509.12,513.61,428.37,522.59c13,11.25,24.6,33.32,24.6,67.15,0,48.52-.42,87.56-.42,99.51,0,9.65,6.52,21,24.91,17.4,144-48,247.77-183.88,247.77-344C725.23,162.34,562.88,0,362.61,0"/><path class="cls-2" d="M137.34,520.63c-.8,1.81-3.63,2.35-6.21,1.1s-4.11-3.63-3.26-5.44,3.62-2.37,6.25-1.13,4.13,3.66,3.22,5.47M152,537c-1.73,1.61-5.11.86-7.4-1.67s-2.82-5.92-1.06-7.54,5.06-.85,7.43,1.68,2.84,5.91,1,7.53m14.3,20.88c-2.22,1.55-5.86.11-8.11-3.12s-2.22-7.1.05-8.64,5.83-.16,8.11,3,2.22,7.14,0,8.72m19.58,20.18c-2,2.19-6.22,1.61-9.32-1.38s-4.05-7.08-2.06-9.27,6.27-1.58,9.4,1.39,4.1,7.09,2,9.26m27,11.72c-.89,2.84-5,4.12-9.07,2.92s-6.78-4.57-6-7.44,5-4.2,9.08-2.91,6.79,4.54,5.94,7.43M242.61,592c.1,3-3.38,5.47-7.69,5.52s-7.85-2.32-7.9-5.26,3.42-5.47,7.74-5.55,7.85,2.32,7.85,5.29m27.62-4.7c.51,2.91-2.48,5.91-6.76,6.71s-8.11-1-8.65-3.92,2.53-6,6.74-6.76,8.12,1,8.67,4"/></svg>